<?xml version="1.0" standalone="no"?>
<svg version="1.0" xmlns="http://www.w3.org/2000/svg"
 width="512.000000pt" height="512.000000pt" viewBox="0 0 512.000000 512.000000"
 preserveAspectRatio="xMidYMid meet">

<g transform="translate(0.000000,512.000000) scale(0.100000,-0.100000)"
fill="#000000" stroke="none">
<path d="M1006 4258 c-58 -16 -129 -91 -145 -151 -12 -48 -7 -104 11 -142 6
-11 321 -332 701 -712 l692 -693 -697 -697 c-637 -638 -698 -702 -708 -743
-44 -167 142 -322 295 -248 11 6 332 321 713 702 l692 691 693 -691 c380 -381
701 -696 712 -702 77 -37 169 -19 235 48 67 66 85 158 48 235 -6 11 -321 332
-702 713 l-691 692 691 693 c381 380 696 701 702 712 37 77 19 169 -48 235
-66 67 -158 85 -235 48 -11 -6 -332 -321 -712 -702 l-693 -691 -692 691 c-381
381 -702 696 -713 702 -33 16 -107 21 -149 10z"/>
</g>
</svg>
