<svg width="30" height="31" viewBox="0 0 30 31" fill="none" xmlns="http://www.w3.org/2000/svg">
<path fill-rule="evenodd" clip-rule="evenodd" d="M5.81263 21.0098C5.89996 20.8933 6.0132 20.7988 6.14338 20.7337C6.27356 20.6687 6.4171 20.6348 6.56265 20.6348H11.2503C11.4989 20.6348 11.7374 20.7335 11.9132 20.9094C12.089 21.0852 12.1878 21.3236 12.1878 21.5723C12.1878 21.8209 12.089 22.0594 11.9132 22.2352C11.7374 22.411 11.4989 22.5098 11.2503 22.5098H7.03141L2.81256 28.1349H27.1881L22.9693 22.5098H18.7504C18.5018 22.5098 18.2633 22.411 18.0875 22.2352C17.9117 22.0594 17.8129 21.8209 17.8129 21.5723C17.8129 21.3236 17.9117 21.0852 18.0875 20.9094C18.2633 20.7335 18.5018 20.6348 18.7504 20.6348H23.438C23.5836 20.6348 23.7271 20.6687 23.8573 20.7337C23.9875 20.7988 24.1007 20.8933 24.1881 21.0098L29.8132 28.5099C29.9176 28.6492 29.9813 28.8149 29.9969 28.9883C30.0125 29.1617 29.9796 29.336 29.9017 29.4917C29.8238 29.6475 29.7042 29.7784 29.556 29.87C29.4079 29.9615 29.2373 30.01 29.0632 30.01H0.937522C0.763413 30.01 0.592744 29.9615 0.444638 29.87C0.296532 29.7784 0.176841 29.6475 0.0989772 29.4917C0.0211133 29.336 -0.0118473 29.1617 0.00378867 28.9883C0.0194246 28.8149 0.0830394 28.6492 0.187505 28.5099L5.81263 21.0098Z" fill="black"/>
<path fill-rule="evenodd" clip-rule="evenodd" d="M15.0004 1.88411C14.2617 1.88411 13.5302 2.02961 12.8478 2.3123C12.1653 2.59499 11.5452 3.00933 11.0229 3.53167C10.5005 4.05402 10.0862 4.67413 9.80348 5.3566C9.52079 6.03907 9.37529 6.77054 9.37529 7.50924C9.37529 8.24794 9.52079 8.97941 9.80348 9.66188C10.0862 10.3444 10.5005 10.9645 11.0229 11.4868C11.5452 12.0091 12.1653 12.4235 12.8478 12.7062C13.5302 12.9889 14.2617 13.1344 15.0004 13.1344C16.4923 13.1344 17.9231 12.5417 18.978 11.4868C20.0329 10.4319 20.6255 9.00112 20.6255 7.50924C20.6255 6.01736 20.0329 4.58659 18.978 3.53167C17.9231 2.47676 16.4923 1.88411 15.0004 1.88411ZM7.50025 7.50924C7.50038 6.06588 7.91699 4.65322 8.70007 3.44076C9.48316 2.2283 10.5995 1.26755 11.915 0.673786C13.2306 0.0800251 14.6896 -0.121522 16.1169 0.0933288C17.5441 0.308179 18.8791 0.930301 19.9616 1.88504C21.044 2.83979 21.828 4.08659 22.2195 5.47586C22.6109 6.86512 22.5932 8.33783 22.1684 9.71727C21.7436 11.0967 20.9298 12.3243 19.8247 13.2527C18.7195 14.1811 17.37 14.7709 15.9379 14.9513V25.3221C15.9379 25.5708 15.8392 25.8093 15.6633 25.9851C15.4875 26.1609 15.2491 26.2597 15.0004 26.2597C14.7518 26.2597 14.5133 26.1609 14.3375 25.9851C14.1617 25.8093 14.0629 25.5708 14.0629 25.3221V14.9532C12.2497 14.7247 10.5822 13.8421 9.37382 12.471C8.1654 11.1 7.49916 9.33493 7.50025 7.50737V7.50924Z" fill="black"/>
</svg>
