<svg width="30" height="31" viewBox="0 0 30 31" fill="none" xmlns="http://www.w3.org/2000/svg">
<path d="M6.85192 2.50026C6.74123 2.35788 6.60152 2.24067 6.44206 2.15644C6.2826 2.0722 6.10704 2.02286 5.92704 2.01169C5.74705 2.00051 5.56674 2.02777 5.39808 2.09164C5.22943 2.15551 5.07629 2.25453 4.94885 2.38214L3.01016 4.32271C2.10457 5.23019 1.77083 6.51454 2.16644 7.64138C3.8084 12.3055 6.47936 16.5401 9.9812 20.0311C13.4722 23.5329 17.7068 26.2039 22.3708 27.8459C23.4976 28.2415 24.782 27.9078 25.6895 27.0022L27.6281 25.0635C27.7557 24.936 27.8548 24.7829 27.9186 24.6142C27.9825 24.4456 28.0098 24.2653 27.9986 24.0853C27.9874 23.9053 27.9381 23.7297 27.8538 23.5702C27.7696 23.4108 27.6524 23.2711 27.51 23.1604L23.1845 19.7967C23.0324 19.6787 22.8555 19.5968 22.6671 19.5572C22.4787 19.5176 22.2838 19.5213 22.0971 19.568L17.9909 20.5936C17.4429 20.7306 16.8686 20.7233 16.3242 20.5725C15.7798 20.4217 15.2836 20.1324 14.8842 19.733L10.2793 15.1262C9.87951 14.7269 9.58994 14.2309 9.4388 13.6864C9.28765 13.142 9.28009 12.5676 9.41684 12.0194L10.4443 7.91325C10.491 7.7265 10.4947 7.53158 10.4551 7.34319C10.4154 7.15481 10.3335 6.97789 10.2156 6.82578L6.85192 2.50026ZM3.53327 0.96842C3.86138 0.640209 4.25555 0.385554 4.68962 0.221366C5.12369 0.0571778 5.58773 -0.0127868 6.05091 0.016118C6.51409 0.0450229 6.96583 0.172136 7.37612 0.389016C7.78641 0.605896 8.14586 0.907581 8.43062 1.27404L11.7943 5.59768C12.4111 6.39079 12.6286 7.42389 12.3849 8.39886L11.3593 12.505C11.3063 12.7177 11.3091 12.9405 11.3676 13.1517C11.4261 13.3629 11.5382 13.5555 11.693 13.7106L16.2997 18.3174C16.4551 18.4725 16.6479 18.5848 16.8595 18.6433C17.0711 18.7018 17.2943 18.7045 17.5072 18.6511L21.6115 17.6255C22.0926 17.5052 22.5948 17.4959 23.0801 17.5982C23.5653 17.7005 24.021 17.9118 24.4126 18.2161L28.7362 21.5798C30.2906 22.7891 30.4331 25.086 29.0418 26.4753L27.1032 28.414C25.7157 29.8015 23.642 30.4108 21.709 29.7302C16.7613 27.9894 12.2691 25.1569 8.56561 21.4429C4.8519 17.7399 2.01946 13.2484 0.278374 8.30137C-0.400354 6.37016 0.209001 4.29459 1.59646 2.90712L3.53515 0.96842H3.53327Z" fill="black"/>
</svg>
