<svg width="221" height="54" viewBox="0 0 221 54" fill="none" xmlns="http://www.w3.org/2000/svg">
<path d="M1.344 15.952V13.6H14.406V15.952H9.87V40.648H21.042L21.882 39.724V33.928H24.906V43H1.344V40.648H5.166V15.952H1.344ZM47.4091 43H37.1191V40.648H40.3951L51.2731 13.6H55.7251L65.6791 40.648H68.8291V43H56.8171V40.648H60.5551L57.8251 33.256H46.6531L43.7971 40.648H47.4091V43ZM47.6191 30.904H57.1111L53.6671 21.202L52.6171 16.75H52.4491L51.2311 21.286L47.6191 30.904ZM86.3868 43H73.0308V40.648H77.3568V15.952H69.8388L68.9988 16.876V22.294H65.9748V13.6H93.4428V22.294H90.4188V16.876L89.5788 15.952H82.0608V40.648H86.3868V43ZM118.065 13.6V20.488H115.377V16.876L114.537 15.952H104.247V26.83H111.345L111.975 26.2V24.436H114.663V31.618H111.975V29.854L111.345 29.182H104.247V40.648H115.251L116.091 39.808V35.692H118.779V43H95.721V40.648H99.543V15.952H95.721V13.6H118.065ZM122.791 15.952V13.6H135.853V15.952H131.317V40.648H142.489L143.329 39.724V33.928H146.353V43H122.791V40.648H126.613V15.952H122.791ZM161.573 43H149.225V40.648H153.047V15.952H149.225V13.6H161.573V15.952H157.751V40.648H161.573V43ZM187.463 13.6V20.488H184.775V16.876L183.935 15.952H173.645V26.83H180.743L181.373 26.2V24.436H184.061V31.618H181.373V29.854L180.743 29.182H173.645V40.648H184.649L185.489 39.808V35.692H188.177V43H165.119V40.648H168.941V15.952H165.119V13.6H187.463ZM200.716 40.648H204.328V43H192.19V40.648H196.012V15.952H192.19V13.6H196.432C197.692 13.6 199.064 13.544 200.548 13.432C202.032 13.32 203.488 13.264 204.916 13.264C206.456 13.264 207.898 13.432 209.242 13.768C210.614 14.076 211.79 14.566 212.77 15.238C213.75 15.91 214.52 16.778 215.08 17.842C215.668 18.878 215.962 20.124 215.962 21.58C215.962 23.596 215.332 25.318 214.072 26.746C212.84 28.146 211.216 29.14 209.2 29.728L217.558 40.648H220.162V43H213.358L205 30.316H200.716V40.648ZM204.034 28.132C206.19 28.132 207.87 27.544 209.074 26.368C210.306 25.192 210.922 23.596 210.922 21.58C210.922 19.508 210.278 17.996 208.99 17.044C207.702 16.092 205.994 15.616 203.866 15.616C203.138 15.616 202.522 15.644 202.018 15.7C201.542 15.756 201.108 15.812 200.716 15.868V28.132H204.034Z" fill="black"/>
<path d="M28.7259 13.8472C28.5757 13.2121 29.133 12.7268 29.7917 12.6332L30.4578 16.953L33.9769 14.2674C34.3891 14.7792 34.4524 15.5068 33.8971 15.8664L30.6061 17.9134L30.8904 19.7596C31.2715 19.7253 31.6521 19.8306 31.9585 20.0551C32.2649 20.2797 32.4754 20.6075 32.5493 20.9753C32.6231 21.343 32.5551 21.7245 32.3583 22.0459C32.1615 22.3673 31.85 22.6059 31.484 22.7155C31.1179 22.825 30.7234 22.7978 30.3767 22.639C30.03 22.4802 29.7558 22.2012 29.607 21.8559C29.4583 21.5106 29.4456 21.1236 29.5714 20.7696C29.6972 20.4157 29.9526 20.12 30.2882 19.9398L29.884 18.3618L28.482 19.2339C28.5988 19.5907 28.5763 19.9774 28.4189 20.3189C28.2615 20.6605 27.9802 20.9328 27.6296 21.0831C27.279 21.2335 26.884 21.2511 26.5208 21.1327C26.1577 21.0143 25.8523 20.7683 25.6637 20.4421C25.4751 20.116 25.4167 19.733 25.4999 19.3672C25.583 19.0014 25.8017 18.6787 26.1137 18.4617C26.4257 18.2446 26.8088 18.1486 27.189 18.1921C27.5691 18.2356 27.9193 18.4157 28.1717 18.6973L29.6753 17.5499L28.7259 13.8472ZM27.8711 20.0341C27.9622 19.8102 27.9589 19.5601 27.8617 19.3388C27.7645 19.1174 27.5815 18.9429 27.3529 18.8536C27.1243 18.7644 26.8689 18.7677 26.6428 18.8628C26.4168 18.958 26.2385 19.1372 26.1474 19.361C26.0562 19.5848 26.0596 19.8349 26.1568 20.0563C26.254 20.2777 26.437 20.4522 26.6655 20.5414C26.8941 20.6307 27.1495 20.6274 27.3756 20.5322C27.6017 20.4371 27.7799 20.2579 27.8711 20.0341ZM31.8931 21.6045C31.9842 21.3807 31.9808 21.1306 31.8837 20.9092C31.7865 20.6879 31.6035 20.5134 31.3749 20.4241C31.1463 20.3349 30.8909 20.3382 30.6648 20.4333C30.4387 20.5285 30.2605 20.7077 30.1694 20.9315C30.0782 21.1553 30.0816 21.4054 30.1788 21.6268C30.2759 21.8481 30.4589 22.0226 30.6875 22.1119C30.9161 22.2012 31.1715 22.1978 31.3976 22.1027C31.6237 22.0075 31.8019 21.8284 31.8931 21.6045Z" fill="black"/>
</svg>
